<svg width="31" height="10" viewBox="0 0 31 10" fill="none" xmlns="http://www.w3.org/2000/svg">
<path d="M8.52638 0.424V2.504H5.98238V9H3.51838V2.504H0.974375V0.424H8.52638ZM9.85363 9V0.424H12.2856V3.256H14.0456C15.0803 3.256 15.907 3.496 16.5256 3.976C17.155 4.456 17.4696 5.16 17.4696 6.088C17.4696 6.99467 17.1763 7.70933 16.5896 8.232C16.0136 8.744 15.2083 9 14.1736 9H9.85363ZM13.8056 5.096H12.2856V7.08H13.8216C14.6216 7.08 15.0216 6.73867 15.0216 6.056C15.0216 5.75733 14.915 5.52267 14.7016 5.352C14.499 5.18133 14.2003 5.096 13.8056 5.096ZM18.6056 9V0.424H21.0376V9H18.6056ZM27.261 9.192C25.981 9.192 24.9143 8.76 24.061 7.896C23.2183 7.032 22.797 5.976 22.797 4.728C22.797 3.49067 23.2237 2.44 24.077 1.576C24.9303 0.701333 26.0023 0.264 27.293 0.264C28.669 0.264 29.805 0.765333 30.701 1.768L29.277 3.208C28.6797 2.64267 28.013 2.36 27.277 2.36C26.6797 2.36 26.1837 2.58933 25.789 3.048C25.3943 3.50667 25.197 4.06667 25.197 4.728C25.197 5.4 25.3943 5.96533 25.789 6.424C26.1943 6.872 26.7223 7.096 27.373 7.096C28.045 7.096 28.701 6.792 29.341 6.184L30.765 7.624C30.2957 8.136 29.7943 8.52533 29.261 8.792C28.7277 9.05867 28.061 9.192 27.261 9.192Z" fill="#7247FF"/>
<path d="M8.52638 0.424V2.504H5.98238V9H3.51838V2.504H0.974375V0.424H8.52638ZM9.85363 9V0.424H12.2856V3.256H14.0456C15.0803 3.256 15.907 3.496 16.5256 3.976C17.155 4.456 17.4696 5.16 17.4696 6.088C17.4696 6.99467 17.1763 7.70933 16.5896 8.232C16.0136 8.744 15.2083 9 14.1736 9H9.85363ZM13.8056 5.096H12.2856V7.08H13.8216C14.6216 7.08 15.0216 6.73867 15.0216 6.056C15.0216 5.75733 14.915 5.52267 14.7016 5.352C14.499 5.18133 14.2003 5.096 13.8056 5.096ZM18.6056 9V0.424H21.0376V9H18.6056ZM27.261 9.192C25.981 9.192 24.9143 8.76 24.061 7.896C23.2183 7.032 22.797 5.976 22.797 4.728C22.797 3.49067 23.2237 2.44 24.077 1.576C24.9303 0.701333 26.0023 0.264 27.293 0.264C28.669 0.264 29.805 0.765333 30.701 1.768L29.277 3.208C28.6797 2.64267 28.013 2.36 27.277 2.36C26.6797 2.36 26.1837 2.58933 25.789 3.048C25.3943 3.50667 25.197 4.06667 25.197 4.728C25.197 5.4 25.3943 5.96533 25.789 6.424C26.1943 6.872 26.7223 7.096 27.373 7.096C28.045 7.096 28.701 6.792 29.341 6.184L30.765 7.624C30.2957 8.136 29.7943 8.52533 29.261 8.792C28.7277 9.05867 28.061 9.192 27.261 9.192Z" fill="url(#paint0_linear_0_545)"/>
<defs>
<linearGradient id="paint0_linear_0_545" x1="16" y1="-8" x2="16" y2="16" gradientUnits="userSpaceOnUse">
<stop stop-color="#4614E8"/>
<stop offset="1" stop-color="#BCA7FF"/>
</linearGradient>
</defs>
</svg>
