<svg width="117" height="36" viewBox="0 0 117 36" fill="none" xmlns="http://www.w3.org/2000/svg">
<path d="M7.544 35V8.648L1.688 10.088L0.152 4.04L9.8 1.16H14.84V35H7.544ZM47.522 30.632C44.738 33.928 41.138 35.576 36.722 35.576C32.306 35.576 28.722 33.928 25.97 30.632C23.218 27.336 21.842 23.192 21.842 18.2C21.842 13.24 23.234 9.112 26.018 5.816C28.802 2.488 32.402 0.823999 36.818 0.823999C41.202 0.823999 44.77 2.472 47.522 5.768C50.306 9.064 51.698 13.208 51.698 18.2C51.698 23.16 50.306 27.304 47.522 30.632ZM31.442 25.88C32.818 27.896 34.61 28.904 36.818 28.904C39.026 28.904 40.786 27.912 42.098 25.928C43.442 23.912 44.114 21.336 44.114 18.2C44.114 15.128 43.426 12.584 42.05 10.568C40.674 8.52 38.898 7.496 36.722 7.496C34.546 7.496 32.786 8.504 31.442 10.52C30.098 12.504 29.426 15.064 29.426 18.2C29.426 21.304 30.098 23.864 31.442 25.88ZM82.5845 30.632C79.8005 33.928 76.2005 35.576 71.7845 35.576C67.3685 35.576 63.7845 33.928 61.0325 30.632C58.2805 27.336 56.9045 23.192 56.9045 18.2C56.9045 13.24 58.2965 9.112 61.0805 5.816C63.8645 2.488 67.4645 0.823999 71.8805 0.823999C76.2645 0.823999 79.8325 2.472 82.5845 5.768C85.3685 9.064 86.7605 13.208 86.7605 18.2C86.7605 23.16 85.3685 27.304 82.5845 30.632ZM66.5045 25.88C67.8805 27.896 69.6725 28.904 71.8805 28.904C74.0885 28.904 75.8485 27.912 77.1605 25.928C78.5045 23.912 79.1765 21.336 79.1765 18.2C79.1765 15.128 78.4885 12.584 77.1125 10.568C75.7365 8.52 73.9605 7.496 71.7845 7.496C69.6085 7.496 67.8485 8.504 66.5045 10.52C65.1605 12.504 64.4885 15.064 64.4885 18.2C64.4885 21.304 65.1605 23.864 66.5045 25.88ZM101.327 30.056V21.416H92.639V14.792H101.327V6.152H108.143V14.792H116.831V21.416H108.143V30.056H101.327Z" fill="#7247FF"/>
<path d="M7.544 35V8.648L1.688 10.088L0.152 4.04L9.8 1.16H14.84V35H7.544ZM47.522 30.632C44.738 33.928 41.138 35.576 36.722 35.576C32.306 35.576 28.722 33.928 25.97 30.632C23.218 27.336 21.842 23.192 21.842 18.2C21.842 13.24 23.234 9.112 26.018 5.816C28.802 2.488 32.402 0.823999 36.818 0.823999C41.202 0.823999 44.77 2.472 47.522 5.768C50.306 9.064 51.698 13.208 51.698 18.2C51.698 23.16 50.306 27.304 47.522 30.632ZM31.442 25.88C32.818 27.896 34.61 28.904 36.818 28.904C39.026 28.904 40.786 27.912 42.098 25.928C43.442 23.912 44.114 21.336 44.114 18.2C44.114 15.128 43.426 12.584 42.05 10.568C40.674 8.52 38.898 7.496 36.722 7.496C34.546 7.496 32.786 8.504 31.442 10.52C30.098 12.504 29.426 15.064 29.426 18.2C29.426 21.304 30.098 23.864 31.442 25.88ZM82.5845 30.632C79.8005 33.928 76.2005 35.576 71.7845 35.576C67.3685 35.576 63.7845 33.928 61.0325 30.632C58.2805 27.336 56.9045 23.192 56.9045 18.2C56.9045 13.24 58.2965 9.112 61.0805 5.816C63.8645 2.488 67.4645 0.823999 71.8805 0.823999C76.2645 0.823999 79.8325 2.472 82.5845 5.768C85.3685 9.064 86.7605 13.208 86.7605 18.2C86.7605 23.16 85.3685 27.304 82.5845 30.632ZM66.5045 25.88C67.8805 27.896 69.6725 28.904 71.8805 28.904C74.0885 28.904 75.8485 27.912 77.1605 25.928C78.5045 23.912 79.1765 21.336 79.1765 18.2C79.1765 15.128 78.4885 12.584 77.1125 10.568C75.7365 8.52 73.9605 7.496 71.7845 7.496C69.6085 7.496 67.8485 8.504 66.5045 10.52C65.1605 12.504 64.4885 15.064 64.4885 18.2C64.4885 21.304 65.1605 23.864 66.5045 25.88ZM101.327 30.056V21.416H92.639V14.792H101.327V6.152H108.143V14.792H116.831V21.416H108.143V30.056H101.327Z" fill="url(#paint0_linear_0_544)"/>
<defs>
<linearGradient id="paint0_linear_0_544" x1="77" y1="-1" x2="77" y2="53" gradientUnits="userSpaceOnUse">
<stop stop-color="#4614E8"/>
<stop offset="1" stop-color="#BCA7FF"/>
</linearGradient>
</defs>
</svg>
