<svg width="28" height="10" viewBox="0 0 28 10" fill="none" xmlns="http://www.w3.org/2000/svg">
<path d="M2.14325 0.424H9.03925V9H6.60725V2.504H4.43125C4.43125 3.63467 4.38858 4.58933 4.30325 5.368C4.21792 6.14667 4.10058 6.78133 3.95125 7.272C3.80192 7.76267 3.59392 8.14133 3.32725 8.408C3.06058 8.67467 2.77258 8.856 2.46325 8.952C2.15392 9.048 1.76992 9.096 1.31125 9.096C0.873917 9.096 0.46325 9.048 0.07925 8.952L0.23925 6.984C0.43125 7.016 0.601917 7.032 0.75125 7.032C1.00725 7.032 1.20992 6.97333 1.35925 6.856C1.50858 6.728 1.64725 6.45067 1.77525 6.024C1.91392 5.58667 2.00992 4.92 2.06325 4.024C2.11658 3.11733 2.14325 1.91733 2.14325 0.424ZM15.277 9.192C13.9757 9.192 12.9037 8.78133 12.061 7.96C11.2183 7.128 10.797 6.05067 10.797 4.728C10.797 3.48 11.197 2.424 11.997 1.56C12.797 0.696 13.8103 0.264 15.037 0.264C16.3917 0.264 17.4263 0.712 18.141 1.608C18.8557 2.504 19.213 3.608 19.213 4.92C19.213 5.048 19.2023 5.26133 19.181 5.56H13.213C13.3303 6.104 13.5703 6.52 13.933 6.808C14.2957 7.096 14.7543 7.24 15.309 7.24C16.0663 7.24 16.7597 6.94667 17.389 6.36L18.781 7.592C17.917 8.65867 16.749 9.192 15.277 9.192ZM13.181 4.04H16.845C16.7703 3.48533 16.573 3.04267 16.253 2.712C15.9437 2.38133 15.5383 2.216 15.037 2.216C14.5463 2.216 14.1357 2.38133 13.805 2.712C13.485 3.032 13.277 3.47467 13.181 4.04ZM27.7295 0.424V2.504H25.1855V9H22.7215V2.504H20.1775V0.424H27.7295Z" fill="#7247FF"/>
<path d="M2.14325 0.424H9.03925V9H6.60725V2.504H4.43125C4.43125 3.63467 4.38858 4.58933 4.30325 5.368C4.21792 6.14667 4.10058 6.78133 3.95125 7.272C3.80192 7.76267 3.59392 8.14133 3.32725 8.408C3.06058 8.67467 2.77258 8.856 2.46325 8.952C2.15392 9.048 1.76992 9.096 1.31125 9.096C0.873917 9.096 0.46325 9.048 0.07925 8.952L0.23925 6.984C0.43125 7.016 0.601917 7.032 0.75125 7.032C1.00725 7.032 1.20992 6.97333 1.35925 6.856C1.50858 6.728 1.64725 6.45067 1.77525 6.024C1.91392 5.58667 2.00992 4.92 2.06325 4.024C2.11658 3.11733 2.14325 1.91733 2.14325 0.424ZM15.277 9.192C13.9757 9.192 12.9037 8.78133 12.061 7.96C11.2183 7.128 10.797 6.05067 10.797 4.728C10.797 3.48 11.197 2.424 11.997 1.56C12.797 0.696 13.8103 0.264 15.037 0.264C16.3917 0.264 17.4263 0.712 18.141 1.608C18.8557 2.504 19.213 3.608 19.213 4.92C19.213 5.048 19.2023 5.26133 19.181 5.56H13.213C13.3303 6.104 13.5703 6.52 13.933 6.808C14.2957 7.096 14.7543 7.24 15.309 7.24C16.0663 7.24 16.7597 6.94667 17.389 6.36L18.781 7.592C17.917 8.65867 16.749 9.192 15.277 9.192ZM13.181 4.04H16.845C16.7703 3.48533 16.573 3.04267 16.253 2.712C15.9437 2.38133 15.5383 2.216 15.037 2.216C14.5463 2.216 14.1357 2.38133 13.805 2.712C13.485 3.032 13.277 3.47467 13.181 4.04ZM27.7295 0.424V2.504H25.1855V9H22.7215V2.504H20.1775V0.424H27.7295Z" fill="url(#paint0_linear_0_558)"/>
<defs>
<linearGradient id="paint0_linear_0_558" x1="14" y1="-8" x2="14" y2="16" gradientUnits="userSpaceOnUse">
<stop stop-color="#4614E8"/>
<stop offset="1" stop-color="#BCA7FF"/>
</linearGradient>
</defs>
</svg>
