<svg width="36" height="27" viewBox="0 0 36 27" fill="none" xmlns="http://www.w3.org/2000/svg">
<path d="M6.408 26V6.236L2.016 7.316L0.864 2.78L8.1 0.619998H11.88V26H6.408ZM26.1675 26.432C22.5195 26.432 19.3755 25.172 16.7355 22.652L20.0835 18.656C22.0995 20.48 24.1035 21.392 26.0955 21.392C27.4155 21.392 28.4475 21.08 29.1915 20.456C29.9355 19.832 30.3075 18.956 30.3075 17.828C30.3075 16.772 29.8995 15.944 29.0835 15.344C28.2675 14.72 27.1875 14.408 25.8435 14.408C24.4995 14.408 23.0955 14.72 21.6315 15.344L18.4275 13.22L19.1475 0.799998H34.6275V5.66H23.8995L23.6115 10.016C24.7635 9.728 25.8675 9.584 26.9235 9.584C29.5395 9.584 31.6635 10.256 33.2955 11.6C34.9275 12.944 35.7435 14.984 35.7435 17.72C35.7435 20.384 34.8675 22.508 33.1155 24.092C31.3875 25.652 29.0715 26.432 26.1675 26.432Z" fill="#7247FF"/>
<path d="M6.408 26V6.236L2.016 7.316L0.864 2.78L8.1 0.619998H11.88V26H6.408ZM26.1675 26.432C22.5195 26.432 19.3755 25.172 16.7355 22.652L20.0835 18.656C22.0995 20.48 24.1035 21.392 26.0955 21.392C27.4155 21.392 28.4475 21.08 29.1915 20.456C29.9355 19.832 30.3075 18.956 30.3075 17.828C30.3075 16.772 29.8995 15.944 29.0835 15.344C28.2675 14.72 27.1875 14.408 25.8435 14.408C24.4995 14.408 23.0955 14.72 21.6315 15.344L18.4275 13.22L19.1475 0.799998H34.6275V5.66H23.8995L23.6115 10.016C24.7635 9.728 25.8675 9.584 26.9235 9.584C29.5395 9.584 31.6635 10.256 33.2955 11.6C34.9275 12.944 35.7435 14.984 35.7435 17.72C35.7435 20.384 34.8675 22.508 33.1155 24.092C31.3875 25.652 29.0715 26.432 26.1675 26.432Z" fill="url(#paint0_linear_0_557)"/>
<defs>
<linearGradient id="paint0_linear_0_557" x1="29" y1="-6" x2="29" y2="26" gradientUnits="userSpaceOnUse">
<stop stop-color="#4614E8"/>
<stop offset="1" stop-color="#BCA7FF"/>
</linearGradient>
</defs>
</svg>
