<svg width="69" height="27" viewBox="0 0 69 27" fill="none" xmlns="http://www.w3.org/2000/svg">
<path d="M9.98 26.432C6.332 26.432 3.188 25.172 0.548 22.652L3.896 18.656C5.912 20.48 7.916 21.392 9.908 21.392C11.228 21.392 12.26 21.08 13.004 20.456C13.748 19.832 14.12 18.956 14.12 17.828C14.12 16.772 13.712 15.944 12.896 15.344C12.08 14.72 11 14.408 9.656 14.408C8.312 14.408 6.908 14.72 5.444 15.344L2.24 13.22L2.96 0.799998H18.44V5.66H7.712L7.424 10.016C8.576 9.728 9.68 9.584 10.736 9.584C13.352 9.584 15.476 10.256 17.108 11.6C18.74 12.944 19.556 14.984 19.556 17.72C19.556 20.384 18.68 22.508 16.928 24.092C15.2 25.652 12.884 26.432 9.98 26.432ZM42.8798 22.724C40.7918 25.196 38.0918 26.432 34.7798 26.432C31.4678 26.432 28.7798 25.196 26.7158 22.724C24.6518 20.252 23.6198 17.144 23.6198 13.4C23.6198 9.68 24.6638 6.584 26.7518 4.112C28.8398 1.616 31.5398 0.368 34.8518 0.368C38.1398 0.368 40.8158 1.604 42.8798 4.076C44.9678 6.548 46.0118 9.656 46.0118 13.4C46.0118 17.12 44.9678 20.228 42.8798 22.724ZM30.8198 19.16C31.8518 20.672 33.1958 21.428 34.8518 21.428C36.5078 21.428 37.8278 20.684 38.8118 19.196C39.8198 17.684 40.3238 15.752 40.3238 13.4C40.3238 11.096 39.8078 9.188 38.7758 7.676C37.7438 6.14 36.4118 5.372 34.7798 5.372C33.1478 5.372 31.8278 6.128 30.8198 7.64C29.8118 9.128 29.3078 11.048 29.3078 13.4C29.3078 15.728 29.8118 17.648 30.8198 19.16ZM56.9367 22.292V15.812H50.4207V10.844H56.9367V4.364H62.0487V10.844H68.5647V15.812H62.0487V22.292H56.9367Z" fill="#7247FF"/>
<path d="M9.98 26.432C6.332 26.432 3.188 25.172 0.548 22.652L3.896 18.656C5.912 20.48 7.916 21.392 9.908 21.392C11.228 21.392 12.26 21.08 13.004 20.456C13.748 19.832 14.12 18.956 14.12 17.828C14.12 16.772 13.712 15.944 12.896 15.344C12.08 14.72 11 14.408 9.656 14.408C8.312 14.408 6.908 14.72 5.444 15.344L2.24 13.22L2.96 0.799998H18.44V5.66H7.712L7.424 10.016C8.576 9.728 9.68 9.584 10.736 9.584C13.352 9.584 15.476 10.256 17.108 11.6C18.74 12.944 19.556 14.984 19.556 17.72C19.556 20.384 18.68 22.508 16.928 24.092C15.2 25.652 12.884 26.432 9.98 26.432ZM42.8798 22.724C40.7918 25.196 38.0918 26.432 34.7798 26.432C31.4678 26.432 28.7798 25.196 26.7158 22.724C24.6518 20.252 23.6198 17.144 23.6198 13.4C23.6198 9.68 24.6638 6.584 26.7518 4.112C28.8398 1.616 31.5398 0.368 34.8518 0.368C38.1398 0.368 40.8158 1.604 42.8798 4.076C44.9678 6.548 46.0118 9.656 46.0118 13.4C46.0118 17.12 44.9678 20.228 42.8798 22.724ZM30.8198 19.16C31.8518 20.672 33.1958 21.428 34.8518 21.428C36.5078 21.428 37.8278 20.684 38.8118 19.196C39.8198 17.684 40.3238 15.752 40.3238 13.4C40.3238 11.096 39.8078 9.188 38.7758 7.676C37.7438 6.14 36.4118 5.372 34.7798 5.372C33.1478 5.372 31.8278 6.128 30.8198 7.64C29.8118 9.128 29.3078 11.048 29.3078 13.4C29.3078 15.728 29.8118 17.648 30.8198 19.16ZM56.9367 22.292V15.812H50.4207V10.844H56.9367V4.364H62.0487V10.844H68.5647V15.812H62.0487V22.292H56.9367Z" fill="url(#paint0_linear_0_549)"/>
<defs>
<linearGradient id="paint0_linear_0_549" x1="39.5" y1="-6" x2="39.5" y2="48" gradientUnits="userSpaceOnUse">
<stop stop-color="#4614E8"/>
<stop offset="1" stop-color="#BCA7FF"/>
</linearGradient>
</defs>
</svg>
